<?xml version="1.0" encoding="UTF-8" standalone="no"?>
<svg
   xmlns="http://www.w3.org/2000/svg"
   version="1.1"
   viewBox="0 0 239.29356 315.14791"
   width="239.29355"
   height="315.14792"
   >
  <polygon
     style="fill:#e03ecf"
     points="91.783,82.916 161.649,152.782 231.514,82.916 "
     transform="matrix(-0.50625161,-0.50625161,0.50625161,-0.50625161,80.382762,323.18259)"
     />
  <polygon
     style="fill:#2965c7"
     points="8.867,0 79.241,70.375 232.213,70.375 161.838,0 "
     transform="matrix(0.50625161,0.50625161,-0.50625161,0.50625161,157.36279,161.96226)"
     />
  <rect
     style="fill:#2965c7"
     height="77.441193"
     width="77.089668"
     transform="rotate(90)"
     y="-239.29352"
     x="-2.2448602e-16"
     />
  <polygon
     style="fill:#e03ecf"
     points="323.298,143.724 323.298,0 179.573,0 "
     transform="matrix(0.50625161,0.50625161,-0.50625161,0.50625161,-90.908128,75.542072)"
     />
  <polygon
     style="fill:#2965c7"
     points="0,314.432 152.781,161.649 0,8.868 "
     transform="matrix(-0.50625161,0.50625161,-0.50625161,-0.50625161,159.18171,164.08257)"
     />
  <polygon
     style="fill:#e03ecf"
     points="323.298,314.432 323.298,178.879 255.522,246.655 "
     transform="matrix(-0.50625161,0.50625161,-0.50625161,-0.50625161,328.00665,-2.8821213)"
     />
  <polygon
     style="fill:#e03ecf"
     points="161.649,170.517 8.869,323.298 314.43,323.298 "
     transform="matrix(0.50625161,0.50625161,-0.50625161,0.50625161,243.78299,-85.815906)"
     />
</svg>
