<?xml version="1.0" encoding="UTF-8" standalone="no"?>

<svg
   xmlns:svg="http://www.w3.org/2000/svg"
   xmlns="http://www.w3.org/2000/svg"
   version="1.1"
   viewBox="0 0 323.141 322.95"
>
   <polygon
      style="fill: #114b5f;"
      points="91.783,82.916 161.649,152.782 231.514,82.916 "
      transform="matrix(-0.50625161,-0.50625161,0.50625161,-0.50625161,122.30649,327.08363)" />
   <polygon
      style="fill: #1a936f;"
      points="79.241,70.375 232.213,70.375 161.838,0 8.867,0 "
      transform="matrix(0.50625161,0.50625161,-0.50625161,0.50625161,199.28651,165.8633)" />
   <rect
      style="fill: #1a936f;"
      height="77.441193"
      width="77.089668"
      transform="rotate(90)"
      y="-281.21725"
      x="3.9010477" />
   <polygon
      style="fill: #114b5f;"
      points="323.298,143.724 323.298,0 179.573,0 "
      transform="matrix(0.50625161,0.50625161,-0.50625161,0.50625161,-48.9844,79.443119)" />
   <polygon
      style="fill: #1a936f;"
      points="0,314.432 152.781,161.649 0,8.868 "
      transform="matrix(-0.50625161,0.50625161,-0.50625161,-0.50625161,201.10543,167.98361)" />
   <polygon
      style="fill: #114b5f;"
      points="323.298,314.432 323.298,178.879 255.522,246.655 "
      transform="matrix(-0.50625161,0.50625161,-0.50625161,-0.50625161,369.93037,1.0189264)" />
   <polygon
      style="fill: #114b5f;"
      points="161.649,170.517 8.869,323.298 314.43,323.298 "
      transform="matrix(0.50625161,0.50625161,-0.50625161,0.50625161,285.70671,-81.914859)" />
</svg>
